<?xml version="1.0" encoding="UTF-8"?>
<svg id="Layer_2" xmlns="http://www.w3.org/2000/svg" version="1.1" viewBox="0 0 50 50">
  <!-- Generator: Adobe Illustrator 29.5.1, SVG Export Plug-In . SVG Version: 2.1.0 Build 141)  -->
  <defs>
    <style>
      .st0 {
        fill: #cc3939;
      }
    </style>
  </defs>
  <g id="Layer_1-2">
    <path class="st0" d="M45,17.6c-.6-.3-.9-.9-.7-1.5,1.2-2.9.7-6.4-1.7-8.7-2.4-2.4-5.9-2.9-8.8-1.7-.6.3-1.3,0-1.5-.7C31.1,2.1,28.3.1,24.9.1s-6.2,2.1-7.4,5c-.3.6-.9.9-1.5.7-2.9-1.2-6.4-.7-8.7,1.7-2.4,2.4-2.9,5.9-1.7,8.8h6.7c2.7,0,4.9,2.2,4.9,4.8v6.2c.1.6-.3,1-.9,1h0c-.5,0-1-.4-1-1v-6.2c-.2-1.6-1.5-2.9-3.1-2.9H3.9c-2.3,1.4-3.9,3.9-3.9,6.9s2.1,6.2,5,7.4c.6.3.9.9.7,1.5-1.2,2.9-.7,6.4,1.7,8.7s5.9,2.9,8.8,1.7c.6-.3,1.3,0,1.5.7,1.2,2.9,4,4.9,7.4,4.9s6.2-2.1,7.4-5c.3-.6.9-.9,1.5-.7,2.9,1.2,6.4.7,8.7-1.7,2.4-2.4,2.9-5.9,1.7-8.8-.3-.6,0-1.3.7-1.5,2.9-1.2,4.9-4,4.9-7.4s-2.1-6.2-5-7.4h0ZM18.9,22.5c0-3.3,2.7-6.1,6.1-6.1s6.1,2.7,6.1,6.1-2.7,6.1-6.1,6.1-6.1-2.7-6.1-6.1ZM36.3,34.9c0,1.7-1.4,3.1-3.1,3.1h-10.9c-1.7,0-3.1-1.4-3.1-3.1v-.7c0-1.7,1.4-3.1,3.1-3.1h10.9c1.7,0,3.1,1.4,3.1,3.1v.7Z"/>
    <path class="st0" d="M33.1,33.3h-10.5c-.7,0-1.2.6-1.2,1.2s.6,1.2,1.2,1.2h10.5c.7,0,1.2-.6,1.2-1.2s-.6-1.2-1.2-1.2Z"/>
    <circle class="st0" cx="25" cy="22.5" r="4"/>
  </g>
</svg>